<mxfile host="app.diagrams.net" agent="Mozilla/5.0 (Macintosh; Intel Mac OS X 10_15_7) AppleWebKit/537.36 (KHTML, like Gecko) Chrome/134.0.0.0 Safari/537.36" version="26.0.14">
  <diagram name="PÃ¡gina-1" id="j5U3azQGtK-b5gBRH97K">
    <mxGraphModel dx="446" dy="300" grid="1" gridSize="10" guides="1" tooltips="1" connect="1" arrows="1" fold="1" page="1" pageScale="1" pageWidth="827" pageHeight="1169" math="0" shadow="0">
      <root>
        <mxCell id="0" />
        <mxCell id="1" parent="0" />
        <mxCell id="cEuHI3RPj8OFH3r16ax9-36" value="" style="rounded=0;whiteSpace=wrap;html=1;gradientColor=default;fillColor=none;" vertex="1" parent="1">
          <mxGeometry x="40" y="450" width="440" height="400" as="geometry" />
        </mxCell>
        <mxCell id="cEuHI3RPj8OFH3r16ax9-22" value="" style="rounded=0;whiteSpace=wrap;html=1;gradientColor=default;fillColor=none;" vertex="1" parent="1">
          <mxGeometry x="40" y="140" width="440" height="300" as="geometry" />
        </mxCell>
        <mxCell id="cEuHI3RPj8OFH3r16ax9-3" value="&lt;h1 style=&quot;margin-top: 0px;&quot;&gt;TocToc - Revenue&lt;/h1&gt;&lt;p&gt;Lorem ipsum dolor sit amet, consectetur adipisicing elit, sed do eiusmod tempor incididunt ut labore et dolore magna aliqua.&lt;/p&gt;" style="text;html=1;whiteSpace=wrap;overflow=hidden;rounded=0;" vertex="1" parent="1">
          <mxGeometry x="40" y="40" width="240" height="100" as="geometry" />
        </mxCell>
        <mxCell id="cEuHI3RPj8OFH3r16ax9-4" value="Get All Products" style="rounded=1;whiteSpace=wrap;html=1;" vertex="1" parent="1">
          <mxGeometry x="100" y="180" width="160" height="40" as="geometry" />
        </mxCell>
        <mxCell id="cEuHI3RPj8OFH3r16ax9-5" value="Get Single Product" style="rounded=1;whiteSpace=wrap;html=1;" vertex="1" parent="1">
          <mxGeometry x="100" y="230" width="160" height="40" as="geometry" />
        </mxCell>
        <mxCell id="cEuHI3RPj8OFH3r16ax9-6" value="Create New Product" style="rounded=1;whiteSpace=wrap;html=1;" vertex="1" parent="1">
          <mxGeometry x="100" y="280" width="160" height="40" as="geometry" />
        </mxCell>
        <mxCell id="cEuHI3RPj8OFH3r16ax9-7" value="Modify Product" style="rounded=1;whiteSpace=wrap;html=1;" vertex="1" parent="1">
          <mxGeometry x="100" y="330" width="160" height="40" as="geometry" />
        </mxCell>
        <mxCell id="cEuHI3RPj8OFH3r16ax9-8" value="Delete Product" style="rounded=1;whiteSpace=wrap;html=1;" vertex="1" parent="1">
          <mxGeometry x="100" y="380" width="160" height="40" as="geometry" />
        </mxCell>
        <mxCell id="cEuHI3RPj8OFH3r16ax9-9" value="&lt;b&gt;&lt;font style=&quot;color: rgb(255, 255, 255);&quot;&gt;GET&lt;/font&gt;&lt;/b&gt;" style="rounded=1;whiteSpace=wrap;html=1;fillColor=#e1d5e7;strokeColor=#9673a6;" vertex="1" parent="1">
          <mxGeometry x="320" y="40" width="40" height="40" as="geometry" />
        </mxCell>
        <mxCell id="cEuHI3RPj8OFH3r16ax9-10" value="&lt;font style=&quot;color: rgb(255, 255, 255);&quot;&gt;&lt;b&gt;POST&lt;/b&gt;&lt;/font&gt;" style="rounded=1;whiteSpace=wrap;html=1;fillColor=#d5e8d4;strokeColor=#82b366;" vertex="1" parent="1">
          <mxGeometry x="370" y="40" width="40" height="40" as="geometry" />
        </mxCell>
        <mxCell id="cEuHI3RPj8OFH3r16ax9-11" value="&lt;font style=&quot;color: rgb(255, 255, 255);&quot;&gt;PUT&lt;/font&gt;" style="rounded=1;whiteSpace=wrap;html=1;fillColor=#dae8fc;strokeColor=#6c8ebf;fontStyle=1" vertex="1" parent="1">
          <mxGeometry x="420" y="40" width="40" height="40" as="geometry" />
        </mxCell>
        <mxCell id="cEuHI3RPj8OFH3r16ax9-14" value="&lt;font style=&quot;color: rgb(255, 255, 255);&quot;&gt;PTCH&lt;/font&gt;" style="rounded=1;whiteSpace=wrap;html=1;fillColor=#ffe6cc;strokeColor=#d79b00;fontStyle=1" vertex="1" parent="1">
          <mxGeometry x="470" y="40" width="40" height="40" as="geometry" />
        </mxCell>
        <mxCell id="cEuHI3RPj8OFH3r16ax9-15" value="&lt;font style=&quot;color: rgb(255, 255, 255);&quot;&gt;DEL&lt;/font&gt;" style="rounded=1;whiteSpace=wrap;html=1;fillColor=#f8cecc;strokeColor=#b85450;fontStyle=1" vertex="1" parent="1">
          <mxGeometry x="520" y="40" width="40" height="40" as="geometry" />
        </mxCell>
        <mxCell id="cEuHI3RPj8OFH3r16ax9-16" value="&lt;b&gt;&lt;font style=&quot;color: rgb(255, 255, 255);&quot;&gt;GET&lt;/font&gt;&lt;/b&gt;" style="rounded=1;whiteSpace=wrap;html=1;fillColor=#e1d5e7;strokeColor=#9673a6;" vertex="1" parent="1">
          <mxGeometry x="50" y="180" width="40" height="40" as="geometry" />
        </mxCell>
        <mxCell id="cEuHI3RPj8OFH3r16ax9-17" value="&lt;b&gt;&lt;font style=&quot;color: rgb(255, 255, 255);&quot;&gt;GET&lt;/font&gt;&lt;/b&gt;" style="rounded=1;whiteSpace=wrap;html=1;fillColor=#e1d5e7;strokeColor=#9673a6;" vertex="1" parent="1">
          <mxGeometry x="50" y="230" width="40" height="40" as="geometry" />
        </mxCell>
        <mxCell id="cEuHI3RPj8OFH3r16ax9-18" value="&lt;font style=&quot;color: rgb(255, 255, 255);&quot;&gt;PUT&lt;/font&gt;" style="rounded=1;whiteSpace=wrap;html=1;fillColor=#dae8fc;strokeColor=#6c8ebf;fontStyle=1" vertex="1" parent="1">
          <mxGeometry x="50" y="280" width="40" height="40" as="geometry" />
        </mxCell>
        <mxCell id="cEuHI3RPj8OFH3r16ax9-19" value="&lt;font style=&quot;color: rgb(255, 255, 255);&quot;&gt;PTCH&lt;/font&gt;" style="rounded=1;whiteSpace=wrap;html=1;fillColor=#ffe6cc;strokeColor=#d79b00;fontStyle=1" vertex="1" parent="1">
          <mxGeometry x="50" y="330" width="40" height="40" as="geometry" />
        </mxCell>
        <mxCell id="cEuHI3RPj8OFH3r16ax9-20" value="&lt;font style=&quot;color: rgb(255, 255, 255);&quot;&gt;DEL&lt;/font&gt;" style="rounded=1;whiteSpace=wrap;html=1;fillColor=#f8cecc;strokeColor=#b85450;fontStyle=1" vertex="1" parent="1">
          <mxGeometry x="50" y="380" width="40" height="40" as="geometry" />
        </mxCell>
        <mxCell id="cEuHI3RPj8OFH3r16ax9-21" value="Venti Manage&lt;br&gt;Products / plans" style="rounded=1;whiteSpace=wrap;html=1;" vertex="1" parent="1">
          <mxGeometry x="310" y="180" width="160" height="240" as="geometry" />
        </mxCell>
        <mxCell id="cEuHI3RPj8OFH3r16ax9-24" value="Product API" style="text;html=1;align=left;verticalAlign=middle;whiteSpace=wrap;rounded=0;" vertex="1" parent="1">
          <mxGeometry x="40" y="140" width="200" height="30" as="geometry" />
        </mxCell>
        <mxCell id="cEuHI3RPj8OFH3r16ax9-25" value="Get One Subscription" style="rounded=1;whiteSpace=wrap;html=1;" vertex="1" parent="1">
          <mxGeometry x="100" y="490" width="160" height="40" as="geometry" />
        </mxCell>
        <mxCell id="cEuHI3RPj8OFH3r16ax9-26" value="Create" style="rounded=1;whiteSpace=wrap;html=1;" vertex="1" parent="1">
          <mxGeometry x="100" y="540" width="160" height="40" as="geometry" />
        </mxCell>
        <mxCell id="cEuHI3RPj8OFH3r16ax9-27" value="Update" style="rounded=1;whiteSpace=wrap;html=1;" vertex="1" parent="1">
          <mxGeometry x="100" y="590" width="160" height="40" as="geometry" />
        </mxCell>
        <mxCell id="cEuHI3RPj8OFH3r16ax9-28" value="Initialize" style="rounded=1;whiteSpace=wrap;html=1;" vertex="1" parent="1">
          <mxGeometry x="100" y="640" width="160" height="40" as="geometry" />
        </mxCell>
        <mxCell id="cEuHI3RPj8OFH3r16ax9-29" value="Stop" style="rounded=1;whiteSpace=wrap;html=1;" vertex="1" parent="1">
          <mxGeometry x="100" y="690" width="160" height="40" as="geometry" />
        </mxCell>
        <mxCell id="cEuHI3RPj8OFH3r16ax9-30" value="&lt;b&gt;&lt;font style=&quot;color: rgb(255, 255, 255);&quot;&gt;GET&lt;/font&gt;&lt;/b&gt;" style="rounded=1;whiteSpace=wrap;html=1;fillColor=#e1d5e7;strokeColor=#9673a6;" vertex="1" parent="1">
          <mxGeometry x="50" y="490" width="40" height="40" as="geometry" />
        </mxCell>
        <mxCell id="cEuHI3RPj8OFH3r16ax9-32" value="&lt;font style=&quot;color: rgb(255, 255, 255);&quot;&gt;PUT&lt;/font&gt;" style="rounded=1;whiteSpace=wrap;html=1;fillColor=#dae8fc;strokeColor=#6c8ebf;fontStyle=1" vertex="1" parent="1">
          <mxGeometry x="50" y="590" width="40" height="40" as="geometry" />
        </mxCell>
        <mxCell id="cEuHI3RPj8OFH3r16ax9-35" value="Venti Manage subscription API REST" style="rounded=1;whiteSpace=wrap;html=1;" vertex="1" parent="1">
          <mxGeometry x="310" y="490" width="160" height="340" as="geometry" />
        </mxCell>
        <mxCell id="cEuHI3RPj8OFH3r16ax9-37" value="Subscription" style="text;html=1;align=left;verticalAlign=middle;whiteSpace=wrap;rounded=0;" vertex="1" parent="1">
          <mxGeometry x="40" y="450" width="200" height="30" as="geometry" />
        </mxCell>
        <mxCell id="cEuHI3RPj8OFH3r16ax9-39" value="&lt;font style=&quot;color: rgb(255, 255, 255);&quot;&gt;&lt;b&gt;POST&lt;/b&gt;&lt;/font&gt;" style="rounded=1;whiteSpace=wrap;html=1;fillColor=#d5e8d4;strokeColor=#82b366;" vertex="1" parent="1">
          <mxGeometry x="50" y="540" width="40" height="40" as="geometry" />
        </mxCell>
        <mxCell id="cEuHI3RPj8OFH3r16ax9-40" value="Re initialize" style="rounded=1;whiteSpace=wrap;html=1;" vertex="1" parent="1">
          <mxGeometry x="100" y="740" width="160" height="40" as="geometry" />
        </mxCell>
        <mxCell id="cEuHI3RPj8OFH3r16ax9-41" value="Suspence" style="rounded=1;whiteSpace=wrap;html=1;" vertex="1" parent="1">
          <mxGeometry x="100" y="790" width="160" height="40" as="geometry" />
        </mxCell>
        <mxCell id="cEuHI3RPj8OFH3r16ax9-42" value="&lt;font style=&quot;color: rgb(255, 255, 255);&quot;&gt;&lt;b&gt;POST&lt;/b&gt;&lt;/font&gt;" style="rounded=1;whiteSpace=wrap;html=1;fillColor=#d5e8d4;strokeColor=#82b366;" vertex="1" parent="1">
          <mxGeometry x="50" y="640" width="40" height="40" as="geometry" />
        </mxCell>
        <mxCell id="cEuHI3RPj8OFH3r16ax9-43" value="&lt;font style=&quot;color: rgb(255, 255, 255);&quot;&gt;&lt;b&gt;POST&lt;/b&gt;&lt;/font&gt;" style="rounded=1;whiteSpace=wrap;html=1;fillColor=#d5e8d4;strokeColor=#82b366;" vertex="1" parent="1">
          <mxGeometry x="50" y="690" width="40" height="40" as="geometry" />
        </mxCell>
        <mxCell id="cEuHI3RPj8OFH3r16ax9-44" value="&lt;font style=&quot;color: rgb(255, 255, 255);&quot;&gt;&lt;b&gt;POST&lt;/b&gt;&lt;/font&gt;" style="rounded=1;whiteSpace=wrap;html=1;fillColor=#d5e8d4;strokeColor=#82b366;" vertex="1" parent="1">
          <mxGeometry x="50" y="740" width="40" height="40" as="geometry" />
        </mxCell>
        <mxCell id="cEuHI3RPj8OFH3r16ax9-45" value="&lt;font style=&quot;color: rgb(255, 255, 255);&quot;&gt;&lt;b&gt;POST&lt;/b&gt;&lt;/font&gt;" style="rounded=1;whiteSpace=wrap;html=1;fillColor=#d5e8d4;strokeColor=#82b366;" vertex="1" parent="1">
          <mxGeometry x="50" y="790" width="40" height="40" as="geometry" />
        </mxCell>
        <mxCell id="cEuHI3RPj8OFH3r16ax9-46" value="" style="rounded=0;whiteSpace=wrap;html=1;gradientColor=default;fillColor=none;" vertex="1" parent="1">
          <mxGeometry x="40" y="860" width="440" height="450" as="geometry" />
        </mxCell>
        <mxCell id="cEuHI3RPj8OFH3r16ax9-47" value="List all client notes" style="rounded=1;whiteSpace=wrap;html=1;" vertex="1" parent="1">
          <mxGeometry x="100" y="900" width="160" height="40" as="geometry" />
        </mxCell>
        <mxCell id="cEuHI3RPj8OFH3r16ax9-48" value="Sales Note" style="text;html=1;align=left;verticalAlign=middle;whiteSpace=wrap;rounded=0;" vertex="1" parent="1">
          <mxGeometry x="40" y="860" width="200" height="30" as="geometry" />
        </mxCell>
        <mxCell id="cEuHI3RPj8OFH3r16ax9-49" value="&lt;b&gt;&lt;font style=&quot;color: rgb(255, 255, 255);&quot;&gt;GET&lt;/font&gt;&lt;/b&gt;" style="rounded=1;whiteSpace=wrap;html=1;fillColor=#e1d5e7;strokeColor=#9673a6;" vertex="1" parent="1">
          <mxGeometry x="50" y="900" width="40" height="40" as="geometry" />
        </mxCell>
        <mxCell id="cEuHI3RPj8OFH3r16ax9-51" value="Venti Manage subscription API REST" style="rounded=1;whiteSpace=wrap;html=1;" vertex="1" parent="1">
          <mxGeometry x="310" y="900" width="160" height="390" as="geometry" />
        </mxCell>
        <mxCell id="cEuHI3RPj8OFH3r16ax9-52" value="&lt;b&gt;&lt;font style=&quot;color: rgb(255, 255, 255);&quot;&gt;GET&lt;/font&gt;&lt;/b&gt;" style="rounded=1;whiteSpace=wrap;html=1;fillColor=#e1d5e7;strokeColor=#9673a6;" vertex="1" parent="1">
          <mxGeometry x="50" y="950" width="40" height="40" as="geometry" />
        </mxCell>
        <mxCell id="cEuHI3RPj8OFH3r16ax9-53" value="List one" style="rounded=1;whiteSpace=wrap;html=1;" vertex="1" parent="1">
          <mxGeometry x="100" y="950" width="160" height="40" as="geometry" />
        </mxCell>
        <mxCell id="cEuHI3RPj8OFH3r16ax9-54" value="Create" style="rounded=1;whiteSpace=wrap;html=1;" vertex="1" parent="1">
          <mxGeometry x="100" y="1000" width="160" height="40" as="geometry" />
        </mxCell>
        <mxCell id="cEuHI3RPj8OFH3r16ax9-55" value="&lt;font style=&quot;color: rgb(255, 255, 255);&quot;&gt;&lt;b&gt;POST&lt;/b&gt;&lt;/font&gt;" style="rounded=1;whiteSpace=wrap;html=1;fillColor=#d5e8d4;strokeColor=#82b366;" vertex="1" parent="1">
          <mxGeometry x="50" y="1000" width="40" height="40" as="geometry" />
        </mxCell>
        <mxCell id="cEuHI3RPj8OFH3r16ax9-56" value="Update" style="rounded=1;whiteSpace=wrap;html=1;" vertex="1" parent="1">
          <mxGeometry x="100" y="1050" width="160" height="40" as="geometry" />
        </mxCell>
        <mxCell id="cEuHI3RPj8OFH3r16ax9-57" value="&lt;font style=&quot;color: rgb(255, 255, 255);&quot;&gt;PUT&lt;/font&gt;" style="rounded=1;whiteSpace=wrap;html=1;fillColor=#dae8fc;strokeColor=#6c8ebf;fontStyle=1" vertex="1" parent="1">
          <mxGeometry x="50" y="1050" width="40" height="40" as="geometry" />
        </mxCell>
        <mxCell id="cEuHI3RPj8OFH3r16ax9-58" value="Finish" style="rounded=1;whiteSpace=wrap;html=1;" vertex="1" parent="1">
          <mxGeometry x="100" y="1100" width="160" height="40" as="geometry" />
        </mxCell>
        <mxCell id="cEuHI3RPj8OFH3r16ax9-59" value="Cancel" style="rounded=1;whiteSpace=wrap;html=1;" vertex="1" parent="1">
          <mxGeometry x="100" y="1150" width="160" height="40" as="geometry" />
        </mxCell>
        <mxCell id="cEuHI3RPj8OFH3r16ax9-60" value="Authorize" style="rounded=1;whiteSpace=wrap;html=1;" vertex="1" parent="1">
          <mxGeometry x="100" y="1200" width="160" height="40" as="geometry" />
        </mxCell>
        <mxCell id="cEuHI3RPj8OFH3r16ax9-61" value="&lt;font style=&quot;color: rgb(255, 255, 255);&quot;&gt;&lt;b&gt;POST&lt;/b&gt;&lt;/font&gt;" style="rounded=1;whiteSpace=wrap;html=1;fillColor=#d5e8d4;strokeColor=#82b366;" vertex="1" parent="1">
          <mxGeometry x="50" y="1100" width="40" height="40" as="geometry" />
        </mxCell>
        <mxCell id="cEuHI3RPj8OFH3r16ax9-62" value="&lt;font style=&quot;color: rgb(255, 255, 255);&quot;&gt;&lt;b&gt;POST&lt;/b&gt;&lt;/font&gt;" style="rounded=1;whiteSpace=wrap;html=1;fillColor=#d5e8d4;strokeColor=#82b366;" vertex="1" parent="1">
          <mxGeometry x="50" y="1150" width="40" height="40" as="geometry" />
        </mxCell>
        <mxCell id="cEuHI3RPj8OFH3r16ax9-63" value="&lt;font style=&quot;color: rgb(255, 255, 255);&quot;&gt;&lt;b&gt;POST&lt;/b&gt;&lt;/font&gt;" style="rounded=1;whiteSpace=wrap;html=1;fillColor=#d5e8d4;strokeColor=#82b366;" vertex="1" parent="1">
          <mxGeometry x="50" y="1200" width="40" height="40" as="geometry" />
        </mxCell>
        <mxCell id="cEuHI3RPj8OFH3r16ax9-64" value="Mail Notification *" style="rounded=1;whiteSpace=wrap;html=1;" vertex="1" parent="1">
          <mxGeometry x="100" y="1250" width="160" height="40" as="geometry" />
        </mxCell>
        <mxCell id="cEuHI3RPj8OFH3r16ax9-65" value="&lt;font style=&quot;color: rgb(255, 255, 255);&quot;&gt;&lt;b&gt;POST&lt;/b&gt;&lt;/font&gt;" style="rounded=1;whiteSpace=wrap;html=1;fillColor=#d5e8d4;strokeColor=#82b366;" vertex="1" parent="1">
          <mxGeometry x="50" y="1250" width="40" height="40" as="geometry" />
        </mxCell>
        <mxCell id="cEuHI3RPj8OFH3r16ax9-66" value="" style="rounded=1;whiteSpace=wrap;html=1;" vertex="1" parent="1">
          <mxGeometry x="270" y="180" width="20" height="40" as="geometry" />
        </mxCell>
        <mxCell id="cEuHI3RPj8OFH3r16ax9-67" value="" style="rounded=1;whiteSpace=wrap;html=1;" vertex="1" parent="1">
          <mxGeometry x="270" y="200" width="20" height="20" as="geometry" />
        </mxCell>
        <mxCell id="cEuHI3RPj8OFH3r16ax9-68" value="" style="rounded=1;whiteSpace=wrap;html=1;" vertex="1" parent="1">
          <mxGeometry x="270" y="230" width="20" height="40" as="geometry" />
        </mxCell>
        <mxCell id="cEuHI3RPj8OFH3r16ax9-69" value="" style="rounded=1;whiteSpace=wrap;html=1;" vertex="1" parent="1">
          <mxGeometry x="270" y="250" width="20" height="20" as="geometry" />
        </mxCell>
        <mxCell id="cEuHI3RPj8OFH3r16ax9-70" value="" style="rounded=1;whiteSpace=wrap;html=1;" vertex="1" parent="1">
          <mxGeometry x="270" y="280" width="20" height="40" as="geometry" />
        </mxCell>
        <mxCell id="cEuHI3RPj8OFH3r16ax9-71" value="" style="rounded=1;whiteSpace=wrap;html=1;" vertex="1" parent="1">
          <mxGeometry x="270" y="300" width="20" height="20" as="geometry" />
        </mxCell>
        <mxCell id="cEuHI3RPj8OFH3r16ax9-72" value="" style="rounded=1;whiteSpace=wrap;html=1;" vertex="1" parent="1">
          <mxGeometry x="270" y="330" width="20" height="40" as="geometry" />
        </mxCell>
        <mxCell id="cEuHI3RPj8OFH3r16ax9-73" value="" style="rounded=1;whiteSpace=wrap;html=1;" vertex="1" parent="1">
          <mxGeometry x="270" y="350" width="20" height="20" as="geometry" />
        </mxCell>
        <mxCell id="cEuHI3RPj8OFH3r16ax9-74" value="" style="rounded=1;whiteSpace=wrap;html=1;" vertex="1" parent="1">
          <mxGeometry x="270" y="380" width="20" height="40" as="geometry" />
        </mxCell>
        <mxCell id="cEuHI3RPj8OFH3r16ax9-75" value="" style="rounded=1;whiteSpace=wrap;html=1;" vertex="1" parent="1">
          <mxGeometry x="270" y="400" width="20" height="20" as="geometry" />
        </mxCell>
        <mxCell id="cEuHI3RPj8OFH3r16ax9-76" value="" style="rounded=1;whiteSpace=wrap;html=1;" vertex="1" parent="1">
          <mxGeometry x="270" y="490" width="20" height="40" as="geometry" />
        </mxCell>
        <mxCell id="cEuHI3RPj8OFH3r16ax9-77" value="" style="rounded=1;whiteSpace=wrap;html=1;" vertex="1" parent="1">
          <mxGeometry x="270" y="510" width="20" height="20" as="geometry" />
        </mxCell>
        <mxCell id="cEuHI3RPj8OFH3r16ax9-78" value="" style="rounded=1;whiteSpace=wrap;html=1;" vertex="1" parent="1">
          <mxGeometry x="270" y="540" width="20" height="40" as="geometry" />
        </mxCell>
        <mxCell id="cEuHI3RPj8OFH3r16ax9-79" value="" style="rounded=1;whiteSpace=wrap;html=1;" vertex="1" parent="1">
          <mxGeometry x="270" y="560" width="20" height="20" as="geometry" />
        </mxCell>
        <mxCell id="cEuHI3RPj8OFH3r16ax9-82" value="" style="rounded=1;whiteSpace=wrap;html=1;" vertex="1" parent="1">
          <mxGeometry x="270" y="590" width="20" height="40" as="geometry" />
        </mxCell>
        <mxCell id="cEuHI3RPj8OFH3r16ax9-83" value="" style="rounded=1;whiteSpace=wrap;html=1;" vertex="1" parent="1">
          <mxGeometry x="270" y="610" width="20" height="20" as="geometry" />
        </mxCell>
        <mxCell id="cEuHI3RPj8OFH3r16ax9-84" value="" style="rounded=1;whiteSpace=wrap;html=1;" vertex="1" parent="1">
          <mxGeometry x="270" y="640" width="20" height="40" as="geometry" />
        </mxCell>
        <mxCell id="cEuHI3RPj8OFH3r16ax9-85" value="" style="rounded=1;whiteSpace=wrap;html=1;" vertex="1" parent="1">
          <mxGeometry x="270" y="660" width="20" height="20" as="geometry" />
        </mxCell>
        <mxCell id="cEuHI3RPj8OFH3r16ax9-86" value="" style="rounded=1;whiteSpace=wrap;html=1;" vertex="1" parent="1">
          <mxGeometry x="270" y="690" width="20" height="40" as="geometry" />
        </mxCell>
        <mxCell id="cEuHI3RPj8OFH3r16ax9-87" value="" style="rounded=1;whiteSpace=wrap;html=1;" vertex="1" parent="1">
          <mxGeometry x="270" y="710" width="20" height="20" as="geometry" />
        </mxCell>
        <mxCell id="cEuHI3RPj8OFH3r16ax9-88" value="" style="rounded=1;whiteSpace=wrap;html=1;" vertex="1" parent="1">
          <mxGeometry x="270" y="740" width="20" height="40" as="geometry" />
        </mxCell>
        <mxCell id="cEuHI3RPj8OFH3r16ax9-89" value="" style="rounded=1;whiteSpace=wrap;html=1;" vertex="1" parent="1">
          <mxGeometry x="270" y="760" width="20" height="20" as="geometry" />
        </mxCell>
        <mxCell id="cEuHI3RPj8OFH3r16ax9-90" value="" style="rounded=1;whiteSpace=wrap;html=1;" vertex="1" parent="1">
          <mxGeometry x="270" y="790" width="20" height="40" as="geometry" />
        </mxCell>
        <mxCell id="cEuHI3RPj8OFH3r16ax9-91" value="" style="rounded=1;whiteSpace=wrap;html=1;" vertex="1" parent="1">
          <mxGeometry x="270" y="810" width="20" height="20" as="geometry" />
        </mxCell>
        <mxCell id="cEuHI3RPj8OFH3r16ax9-92" value="" style="rounded=1;whiteSpace=wrap;html=1;" vertex="1" parent="1">
          <mxGeometry x="270" y="900" width="20" height="40" as="geometry" />
        </mxCell>
        <mxCell id="cEuHI3RPj8OFH3r16ax9-93" value="" style="rounded=1;whiteSpace=wrap;html=1;" vertex="1" parent="1">
          <mxGeometry x="270" y="920" width="20" height="20" as="geometry" />
        </mxCell>
        <mxCell id="cEuHI3RPj8OFH3r16ax9-94" value="" style="rounded=1;whiteSpace=wrap;html=1;" vertex="1" parent="1">
          <mxGeometry x="270" y="950" width="20" height="40" as="geometry" />
        </mxCell>
        <mxCell id="cEuHI3RPj8OFH3r16ax9-95" value="" style="rounded=1;whiteSpace=wrap;html=1;" vertex="1" parent="1">
          <mxGeometry x="270" y="970" width="20" height="20" as="geometry" />
        </mxCell>
        <mxCell id="cEuHI3RPj8OFH3r16ax9-96" value="" style="rounded=1;whiteSpace=wrap;html=1;" vertex="1" parent="1">
          <mxGeometry x="270" y="1000" width="20" height="40" as="geometry" />
        </mxCell>
        <mxCell id="cEuHI3RPj8OFH3r16ax9-97" value="" style="rounded=1;whiteSpace=wrap;html=1;" vertex="1" parent="1">
          <mxGeometry x="270" y="1020" width="20" height="20" as="geometry" />
        </mxCell>
        <mxCell id="cEuHI3RPj8OFH3r16ax9-98" value="" style="rounded=1;whiteSpace=wrap;html=1;" vertex="1" parent="1">
          <mxGeometry x="270" y="1050" width="20" height="40" as="geometry" />
        </mxCell>
        <mxCell id="cEuHI3RPj8OFH3r16ax9-99" value="" style="rounded=1;whiteSpace=wrap;html=1;" vertex="1" parent="1">
          <mxGeometry x="270" y="1070" width="20" height="20" as="geometry" />
        </mxCell>
        <mxCell id="cEuHI3RPj8OFH3r16ax9-100" value="" style="rounded=1;whiteSpace=wrap;html=1;" vertex="1" parent="1">
          <mxGeometry x="270" y="1100" width="20" height="40" as="geometry" />
        </mxCell>
        <mxCell id="cEuHI3RPj8OFH3r16ax9-101" value="" style="rounded=1;whiteSpace=wrap;html=1;" vertex="1" parent="1">
          <mxGeometry x="270" y="1120" width="20" height="20" as="geometry" />
        </mxCell>
        <mxCell id="cEuHI3RPj8OFH3r16ax9-102" value="" style="rounded=1;whiteSpace=wrap;html=1;" vertex="1" parent="1">
          <mxGeometry x="270" y="1150" width="20" height="40" as="geometry" />
        </mxCell>
        <mxCell id="cEuHI3RPj8OFH3r16ax9-103" value="" style="rounded=1;whiteSpace=wrap;html=1;" vertex="1" parent="1">
          <mxGeometry x="270" y="1170" width="20" height="20" as="geometry" />
        </mxCell>
        <mxCell id="cEuHI3RPj8OFH3r16ax9-104" value="" style="rounded=1;whiteSpace=wrap;html=1;" vertex="1" parent="1">
          <mxGeometry x="270" y="1200" width="20" height="40" as="geometry" />
        </mxCell>
        <mxCell id="cEuHI3RPj8OFH3r16ax9-105" value="" style="rounded=1;whiteSpace=wrap;html=1;" vertex="1" parent="1">
          <mxGeometry x="270" y="1220" width="20" height="20" as="geometry" />
        </mxCell>
        <mxCell id="cEuHI3RPj8OFH3r16ax9-106" value="" style="rounded=1;whiteSpace=wrap;html=1;" vertex="1" parent="1">
          <mxGeometry x="270" y="1250" width="20" height="40" as="geometry" />
        </mxCell>
        <mxCell id="cEuHI3RPj8OFH3r16ax9-107" value="" style="rounded=1;whiteSpace=wrap;html=1;" vertex="1" parent="1">
          <mxGeometry x="270" y="1270" width="20" height="20" as="geometry" />
        </mxCell>
        <mxCell id="cEuHI3RPj8OFH3r16ax9-108" value="&lt;h1 style=&quot;margin-top: 0px;&quot;&gt;Objetivos&lt;/h1&gt;&lt;p&gt;Lorem ipsum dolor sit amet, consectetur adipisicing elit, sed do eiusmod tempor incididunt ut labore et dolore magna aliqua.&lt;/p&gt;" style="text;html=1;whiteSpace=wrap;overflow=hidden;rounded=0;" vertex="1" parent="1">
          <mxGeometry x="490" y="140" width="240" height="100" as="geometry" />
        </mxCell>
      </root>
    </mxGraphModel>
  </diagram>
</mxfile>
